<?xml version="1.0" encoding="UTF-8"?>
<!DOCTYPE svg PUBLIC "-//W3C//DTD SVG 1.1//EN" "http://www.w3.org/Graphics/SVG/1.1/DTD/svg11.dtd">
<!-- Creator: CorelDRAW 2020 (64 Bit) -->
<svg xmlns="http://www.w3.org/2000/svg" xml:space="preserve" width="41.6367mm" height="41.6367mm" version="1.1" shape-rendering="geometricPrecision" text-rendering="geometricPrecision" image-rendering="optimizeQuality" fill-rule="evenodd" clip-rule="evenodd"
viewBox="0 0 900.11 900.11"
 xmlns:xlink="http://www.w3.org/1999/xlink"
 xmlns:xodm="http://www.corel.com/coreldraw/odm/2003">
 <g id="Camada_x0020_1">
  <metadata id="CorelCorpID_0Corel-Layer"/>
  <path fill="#DEB25B" d="M450.97 758.37c0,13.88 11.3,18.36 23.72,18.36 10.66,0 25.64,1.43 32.93,-3.79 9.28,-6.65 8.72,-20.6 1.63,-26.94 -2.2,-1.97 -6.83,-4.46 -10.84,-4.46l-31.37 0c-8.37,0 -16.06,8.68 -16.06,16.83zm14.21 -618.92c0,21.83 35.19,23.03 35.19,-0.76 0,-12.73 -16.51,-24.59 -29.96,-12.36 -2.92,2.65 -5.23,7.63 -5.23,13.13zm8.78 147.86c-19.32,0 -13.97,0.98 -14.2,22.54l-0.23 22.07 -6.36 1.77c-20.35,5.68 -33.37,18.93 -39.75,34.88 -4.21,10.53 -5.59,22.29 -4.34,33.91 1.26,11.67 5.18,23.12 11.55,32.98 10.34,15.99 27.24,27.84 49.88,29.61 1.8,0.14 2.97,0.21 4.18,0.29 7.59,0.48 16.32,1.03 23.41,3.98 11.37,4.73 17.79,13.45 10.65,30.64 -6.47,15.58 -51,15.96 -82.58,15.02 -33.35,-0.99 -29.4,43.46 -1.67,43.68l35.15 0.27 -0 19.82c-0.01,22.21 -4.87,21.05 15.63,21.02 32.26,-0.04 23.42,5.45 28.55,-22.62 1.41,-7.7 0.4,-12.35 1.85,-16 2.42,-6.08 5.65,-7.59 11.52,-10.34 3.14,-1.47 7.56,-3.53 13.79,-7.99l-0.01 -0.02c3.58,-2.56 6.51,-5.43 9.08,-8.72 2.67,-3.42 5.1,-7.52 7.56,-12.34 1.9,-3.72 3.4,-7.38 4.54,-10.93 5.18,-16.19 4.19,-32.92 -1.82,-47.5 -5.98,-14.51 -16.97,-26.9 -31.85,-34.47 -3.42,-1.74 -6.91,-3.2 -10.45,-4.33 -5.9,-1.89 -13.34,-2.5 -20.31,-3.07 -8.32,-0.68 -16.05,-1.32 -22.43,-4.14l-0.01 0.03c-9.55,-4.24 -14.7,-11.32 -11.74,-24.7 6.48,-29.28 38.84,-20.84 67.1,-20.05 6,0.17 12,0.34 17.87,0.38 34.49,0.22 20.54,-44.27 5.16,-44.42l-40.57 -0.39c-2.7,-43.42 8.33,-41.51 -29.15,-40.88zm137.67 511.62l-261.65 0c-20.26,0 -38.25,-18.61 -38.25,-39.02l0 -41.31 338.92 0 0 34.43c0,15.65 -3.02,23.18 -10.03,32.04 -5.4,6.83 -16.85,13.86 -28.99,13.86zm32.9 -167.55c-9.03,0 -14.13,-2.27 -19.71,-7.83 -13.38,-13.31 -8.68,-31.66 4.59,-44.78l9.58 -8.78c11.07,-11.07 26.88,-24.55 37.87,-35.58 10.25,-10.28 14.35,-8.99 23.33,0l8.42 9.17c2.78,3.15 5.83,5.7 8.81,8.79 1.52,1.58 2.79,3.25 4.18,5 8.41,10.63 -6.06,18.6 -14.14,26.76l-9.56 8.81c-3.32,2.92 -5.9,6.15 -9.18,9.19 -1.96,1.81 -3,2.21 -5,4.18l-14.14 13.4c-6.12,6.18 -13.11,11.67 -25.06,11.67zm1.53 -127.76c-26,0 -35.22,-23.93 -25.02,-42.61 2.25,-4.13 5.22,-6.8 8.38,-9.99l14.14 -13.4c2.04,-2.05 2.97,-2.43 4.98,-4.2 7.51,-6.62 20.65,-21.39 28.84,-26.24 1.89,-1.12 3.64,-2.27 5.52,-3.66 7.27,-5.39 7.51,-6.65 16.9,2.75 5.69,5.69 24.29,23.61 24.29,29.26 0,5.83 -3.26,8.22 -6.3,11.29l-28.35 26.74c-6.27,5.24 -9.01,8.8 -14.42,13.12 -6.31,5.03 -14.05,16.94 -28.96,16.94zm0 -122.41c-9.81,0 -14.23,-0.06 -22.39,-8.21 -12.75,-12.73 -7.63,-34.33 4.35,-43.49 3.75,-2.87 6.19,-5.65 9.43,-8.93l29.26 -27.34c5.13,-3.92 14.07,-16.07 21.42,-16.07 7.65,0 15.13,11.75 19.7,16.26 21.39,21.14 20.47,21.47 -0.76,40.17l-13.79 12.99c-1.72,1.73 -2.86,2.88 -4.58,4.6 -3.27,3.28 -6.02,5.21 -9.18,8.41 -2.82,2.85 -6.04,6.9 -9.49,8.87 -4.2,2.4 -7.85,3.99 -11.16,7.2 -3.35,3.24 -6.44,5.55 -12.81,5.55zm-65.03 -26.78c0,18.17 8.96,37.73 23.38,48.54 3.79,2.84 10.82,7.72 15.64,8.84 -5.28,7.89 -38.25,25.52 -38.25,64.26 0,17.58 7.92,34.8 18.14,44.59 5.41,5.19 17.94,13.76 24.7,14.32 -3.38,5.05 -7.41,7.24 -10.53,10.13l-13.96 13.58c-4.99,6.54 -9.67,10.44 -13.87,22.09 -16.49,45.8 17.43,85.79 55.95,85.79l8.42 -0.77 0 17.6 -338.92 0 0 -149.95c7.41,-1.73 15.37,-8.42 20.65,-13.01 2.11,-1.83 5.99,-6.42 7.88,-8.95 16.41,-21.95 20.86,-56.03 18.02,-83.5 -0.5,-4.83 -1.77,-11.27 -2.18,-16.18l-25.03 0 -19.34 0 -35.19 0 -13.24 0 -60.2 0c-9.13,0 -18.16,2.54 -24.48,5.35 -20.08,8.94 -37.49,32.01 -37.49,53.55l0 178.26c0,21.45 5.54,42.12 11,58.62 6.1,18.44 21.35,46.55 33.97,60.9 15.33,17.44 26.71,29.15 46.06,41.92 5.3,3.5 12.27,8.41 18.37,8.41 16.35,0 22.84,-19.73 12.85,-29.68l-19.52 -13.38c-1.8,-1.35 -3.21,-2.36 -4.82,-3.6 -25.93,-19.79 -47.86,-53.35 -56.6,-84.93 -5.14,-18.57 -6.88,-35.89 -6.88,-59.68l0 -146.89c0,-9.81 1.92,-17.82 6.69,-23.14 4.46,-4.97 11.01,-10.52 20.08,-10.52l121.64 0c0,5.33 -1.25,14.2 -2.09,18.57 -11.5,59.79 -61.42,26.57 -81.44,41.73 -14.4,10.91 -7.13,32.28 11.62,32.28l24.48 0 0 214.21c0,2.87 0.37,0.03 0.18,3.29 -0.84,14.2 3.84,29.91 11.44,41.71 6.62,10.27 14.26,17.93 24.66,24.3 10.77,6.59 23.33,11.03 37.93,11.03l260.88 0c32.99,0 62.92,-23.94 71.32,-56.45 4.19,-16.23 2.13,-41.43 2.13,-61.37 0,-21.42 0,-42.84 0,-64.26 3.28,-1.73 6.72,-4.77 9.38,-7.46l35.11 -32.98c2.9,-2.31 5.72,-5.63 8.48,-8.35 3.08,-3.05 5.8,-4.51 8.78,-8.05 2.9,-3.45 5.08,-6.41 7.12,-10.48 9.17,-18.31 4.93,-37.72 -6.35,-51.05 -2.83,-3.35 -5.17,-5.1 -8.08,-8.75l-21.08 -21.76c-1.86,-1.43 -3.87,-2.53 -5.04,-4.14l13.57 -13.21c2.51,-2.52 4.36,-3.53 6.9,-6.1l13.53 -13.25c2.26,-2.91 3.97,-4.93 5.76,-8.01 7.25,-12.41 7.86,-29.07 1.17,-42.44 -3.56,-7.12 -6.74,-9.76 -11.68,-15.1 -1.44,-1.56 -1.42,-1.88 -2.7,-3.42l-23.49 -23.94c1.66,-2.48 4.66,-5.37 7.11,-7.42 3.37,-2.82 4.93,-4.23 8,-7.3 5.27,-5.28 10.34,-8.75 15.27,-14.57 15.52,-18.33 15.9,-45.1 -3.03,-63.85 -2.97,-2.94 -4.22,-4.39 -6.92,-7.61 -2.21,-2.64 -5.11,-5.2 -7.62,-7.68 -13.26,-13.11 -16.85,-22.38 -44.18,-22.38 -12.83,2.11 -23.78,8.1 -34.43,16.07 0,1.61 -10.16,11.3 -18.94,19.45l-0.24 0.23 -0.68 0.63 -0.41 0.38c-5.21,4.82 -9.7,8.9 -10.9,10.11 -11.53,11.54 -20.98,17.56 -29.71,32.26 -4.58,7.72 -8.74,20.64 -8.74,32.58zm-269.3 41.51l0 -192.22 338.92 0 0 37.75 34.43 -19.39 0 -85.68c0,-14.18 -8.57,-34.82 -17.39,-43.81 -7.16,-7.29 -3.1,-4.41 -13.86,-12.92 -2.71,-2.14 -7.64,-4.93 -11.08,-6.52 -7.02,-3.24 -18.26,-7.13 -28.06,-7.13l-267 0c-17.28,0 -41.29,11.82 -51.37,24.37 -12.42,15.45 -19.78,29.06 -19.78,56.73l0 248.83 35.19 0zm0 -254.19c0,-11.24 4.89,-21.94 10.5,-27.75 5.2,-5.38 15.38,-12.8 25.46,-12.8l266.24 0c10.53,0 22.05,7.67 26.9,13.65 12.34,15.23 9.83,31.91 9.83,53.67l-338.92 0 0 -26.78z"/>
  <rect fill="none" width="900.11" height="900.11"/>
 </g>
</svg>
