<?xml version="1.0" encoding="UTF-8"?>
<!DOCTYPE svg PUBLIC "-//W3C//DTD SVG 1.1//EN" "http://www.w3.org/Graphics/SVG/1.1/DTD/svg11.dtd">
<!-- Creator: CorelDRAW 2020 (64 Bit) -->
<svg xmlns="http://www.w3.org/2000/svg" xml:space="preserve" width="154.873mm" height="83.6593mm" version="1.1" shape-rendering="geometricPrecision" text-rendering="geometricPrecision" image-rendering="optimizeQuality" fill-rule="evenodd" clip-rule="evenodd"
viewBox="0 0 15557.48 8403.85"
 xmlns:xlink="http://www.w3.org/1999/xlink"
 xmlns:xodm="http://www.corel.com/coreldraw/odm/2003">
 <g id="Camada_x0020_1">
  <metadata id="CorelCorpID_0Corel-Layer"/>
  <path fill="#DEB25B" d="M3458.64 7290.03c0,139 113.18,183.91 237.54,183.91 106.77,0 256.81,14.29 329.82,-37.98 92.97,-66.58 87.32,-206.29 16.35,-269.87 -22,-19.71 -68.39,-44.63 -108.62,-44.63l-314.18 0c-83.82,0 -160.92,86.92 -160.92,168.57zm142.3 -6199.2c0,218.67 352.48,230.7 352.48,-7.65 0,-127.53 -165.36,-246.29 -300.08,-123.84 -29.25,26.59 -52.4,76.4 -52.4,131.49zm87.93 1480.92c-193.51,0.02 -139.89,9.81 -142.2,225.8l-2.35 221.08 -63.66 17.76c-203.8,56.88 -334.19,189.59 -398.09,349.38 -42.19,105.47 -56.04,223.26 -43.45,339.64 12.63,116.85 51.85,231.53 115.73,330.31 103.54,160.11 272.85,278.85 499.59,296.57 18.04,1.41 29.75,2.16 41.87,2.91 75.98,4.8 163.45,10.35 234.48,39.87 113.88,47.34 178.24,134.75 106.7,306.86 -64.85,155.99 -510.84,159.87 -827.08,150.46 -334.02,-9.95 -294.48,435.3 -16.74,437.46l352.08 2.74 -0.06 198.54c-0.08,222.45 -48.79,210.81 156.54,210.52 323.15,-0.44 234.55,54.63 285.95,-226.58 14.1,-77.14 4,-123.7 18.53,-160.23 24.28,-60.95 56.59,-76.06 115.43,-103.58 31.45,-14.7 75.69,-35.38 138.11,-80.03l-0.11 -0.16c35.84,-25.67 65.18,-54.38 90.89,-87.3 26.75,-34.3 51.12,-75.3 75.69,-123.6 18.99,-37.31 34.09,-73.87 45.47,-109.45 51.85,-162.12 41.99,-329.78 -18.18,-475.79 -59.9,-145.38 -170.04,-269.46 -319.03,-345.24 -34.24,-17.44 -69.23,-31.99 -104.68,-43.34 -59.06,-18.89 -133.66,-25.01 -203.44,-30.73 -83.32,-6.84 -160.78,-13.2 -224.68,-41.52l-0.13 0.29c-95.64,-42.42 -147.26,-113.33 -117.58,-247.4 64.92,-293.26 388.99,-208.73 672.04,-200.79 60.1,1.7 120.23,3.39 178.97,3.78 345.45,2.26 205.77,-443.38 51.65,-444.9l-406.33 -3.87c-27.08,-434.88 83.47,-415.79 -291.94,-409.48zm1378.95 5124.42l-2620.68 0c-202.89,0 -383.14,-186.37 -383.14,-390.8l0 -413.8 3394.62 0 0 344.83c0,156.71 -30.29,232.16 -100.49,320.97 -54.09,68.44 -168.76,138.81 -290.31,138.81zm329.5 -1678.15c-90.49,0 -141.54,-22.76 -197.45,-78.4 -133.97,-133.33 -86.96,-317.14 45.97,-448.56l95.93 -87.98c110.84,-110.89 269.22,-245.84 379.3,-356.33 102.64,-103 143.7,-90.08 233.71,0.01l84.36 91.89c27.81,31.59 58.42,57.09 88.21,88.03 15.2,15.77 27.97,32.51 41.86,50.1 84.19,106.51 -60.64,186.31 -141.64,268.05l-95.71 88.2c-33.23,29.26 -59.11,61.64 -91.91,92 -19.62,18.14 -30.12,22.16 -50.06,41.89l-141.61 134.25c-61.33,61.89 -131.29,116.87 -250.96,116.87zm15.33 -1279.68c-260.4,0 -352.75,-239.68 -250.57,-426.83 22.57,-41.34 52.24,-68.09 83.89,-100.02l141.66 -134.2c20.44,-20.52 29.7,-24.32 49.87,-42.09 75.24,-66.25 206.79,-214.26 288.86,-262.86 18.87,-11.17 36.5,-22.7 55.3,-36.65 72.77,-54 75.23,-66.59 169.3,27.54 56.96,56.98 243.29,236.5 243.29,293.1 0,58.41 -32.65,82.36 -63.14,113.08l-283.94 267.79c-62.81,52.52 -90.21,88.11 -144.46,131.39 -63.22,50.43 -140.72,169.73 -290.05,169.73zm0 -1226.05c-98.26,0 -142.5,-0.58 -224.3,-82.21 -127.72,-127.47 -76.38,-343.84 43.62,-435.65 37.53,-28.71 61.98,-56.62 94.45,-89.45l293.13 -273.91c51.35,-39.2 140.91,-160.92 214.56,-160.92 76.59,0 151.54,117.65 197.29,162.86 214.29,211.81 205.07,215.07 -7.57,402.33l-138.1 130.1c-17.21,17.29 -28.69,28.86 -45.86,46.09 -32.76,32.85 -60.29,52.17 -92,84.25 -28.2,28.52 -60.53,69.08 -95.08,88.83 -42.02,24.02 -78.59,39.92 -111.79,72.11 -33.51,32.49 -64.52,55.57 -128.34,55.57zm-651.34 -268.2c0,181.99 89.78,377.92 234.15,486.16 38,28.49 108.33,77.29 156.67,88.55 -52.91,79 -383.15,255.63 -383.15,643.67 0,176.08 79.34,348.56 181.73,446.63 54.23,51.94 179.71,137.77 247.39,143.41 -33.88,50.6 -74.17,72.5 -105.46,101.44l-139.87 135.99c-49.92,65.53 -96.88,104.6 -138.89,221.27 -165.19,458.68 174.57,859.3 560.45,859.3l84.3 -7.66 0 176.26 -3394.62 0 0 -1501.91c74.21,-17.3 153.97,-84.31 206.84,-130.33 21.08,-18.36 60.02,-64.3 78.96,-89.62 164.42,-219.84 208.9,-561.17 180.51,-836.39 -4.99,-48.42 -17.78,-112.82 -21.87,-162.04l-250.68 0 -193.76 0 -352.49 0 -132.59 0 -603.03 0c-91.43,0 -181.85,25.42 -245.22,53.63 -201.12,89.51 -375.47,320.61 -375.47,536.4l0 1785.43c0,214.89 55.51,421.87 110.16,587.16 61.07,184.72 213.88,466.27 340.23,609.96 153.56,174.66 267.47,291.95 461.38,419.83 53.09,35.02 122.89,84.19 184.02,84.19 163.75,0 228.79,-197.61 128.71,-297.29l-195.49 -134.01c-17.99,-13.51 -32.14,-23.66 -48.31,-35.99 -259.73,-198.22 -479.39,-534.38 -566.94,-850.68 -51.46,-185.97 -68.93,-359.5 -68.93,-597.72l0 -1471.26c0,-98.29 19.2,-178.48 67.03,-231.82 44.69,-49.83 110.31,-105.36 201.16,-105.36l1218.39 0c0,53.41 -12.52,142.19 -20.93,185.97 -115.2,598.85 -615.21,266.15 -815.73,417.97 -144.29,109.26 -71.41,323.27 116.37,323.27l245.21 0 0 2145.58c0,28.79 3.71,0.29 1.77,32.97 -8.38,142.18 38.46,299.54 114.59,417.73 66.27,102.89 142.84,179.62 247.03,243.39 107.86,66.03 233.68,110.51 379.9,110.51l2613.01 0c330.45,0 630.17,-239.79 714.31,-565.38 42,-162.55 21.32,-414.94 21.32,-614.68 0,-214.57 0,-429.12 0,-643.67 32.81,-17.37 67.33,-47.81 93.9,-74.69l351.68 -330.31c29.04,-23.15 57.3,-56.33 84.91,-83.67 30.83,-30.5 58.13,-45.16 87.94,-80.63 29.05,-34.59 50.88,-64.17 71.3,-104.94 91.86,-183.36 49.38,-377.78 -63.61,-511.27 -28.37,-33.52 -51.75,-51.09 -80.93,-87.66l-211.16 -217.95c-18.58,-14.34 -38.7,-25.32 -50.52,-41.45l135.9 -132.3c25.14,-25.26 43.66,-35.33 69.14,-61.12l135.48 -132.73c22.63,-29.17 39.75,-49.41 57.72,-80.19 72.6,-124.31 78.76,-291.14 11.72,-425.09 -35.7,-71.34 -67.52,-97.8 -116.96,-151.23 -14.44,-15.6 -14.18,-18.81 -27.07,-34.23l-235.29 -239.81c16.61,-24.8 46.68,-53.84 71.23,-74.37 33.75,-28.22 49.35,-42.36 80.11,-73.13 52.85,-52.88 103.63,-87.64 152.95,-145.91 155.39,-183.58 159.25,-451.74 -30.33,-639.56 -29.7,-29.42 -42.31,-43.95 -69.32,-76.25 -22.11,-26.45 -51.15,-52.06 -76.32,-76.95 -132.86,-131.32 -168.76,-224.17 -442.49,-224.17 -128.55,21.16 -238.18,81.08 -344.83,160.93 0,16.17 -101.78,113.19 -189.72,194.82l-2.46 2.28 -6.77 6.29 -4.11 3.8c-52.19,48.3 -97.15,89.17 -109.2,101.24 -115.45,115.53 -210.14,175.88 -297.56,323.13 -45.89,77.27 -87.49,206.72 -87.49,326.29zm-2697.3 415.74l0 -1925.31 3394.62 0 0 378.13 344.83 -194.26 0 -858.19c0,-141.98 -85.81,-348.78 -174.23,-438.8 -71.66,-72.96 -31,-44.2 -138.78,-129.42 -27.12,-21.45 -76.51,-49.36 -110.95,-65.29 -70.31,-32.5 -182.93,-71.46 -281.02,-71.46l-2674.33 0c-173.13,0 -413.59,118.43 -514.55,244.06 -124.42,154.8 -198.08,291.07 -198.08,568.19l0 2492.36 352.49 0zm0 -2545.99c0,-112.55 49,-219.78 105.18,-277.95 52.04,-53.88 154,-128.18 254.96,-128.18l2666.65 0c105.5,0 220.87,76.81 269.42,136.72 123.6,152.5 98.4,319.59 98.4,537.61l-3394.62 0 0 -268.19z"/>
  <rect fill="none" y="0" width="15557.48" height="8403.85"/>
  <path fill="#DEB25B" fill-rule="nonzero" d="M8230.84 1497.43l-370.43 0 0 1006.34 -529.41 0 0 -1006.34 -371.97 0 57.11 -233.06 1157.59 0 57.11 233.06zm1321.13 399.75c0,173.89 -62.5,322.85 -187.53,446.84 -125.02,123.99 -275.51,185.99 -451.47,185.99 -175.95,0 -326.44,-62 -451.46,-185.99 -125.02,-123.99 -187.54,-272.94 -187.54,-446.84 0,-173.89 62.51,-322.84 187.54,-446.83 125.01,-124 275.5,-185.99 451.46,-185.99 175.95,0 326.44,61.99 451.47,185.99 125.02,123.99 187.53,272.93 187.53,446.83zm-543.29 373.53l0 -773.28 -191.39 0 0 773.28 191.39 0zm1785.72 -605.04c0,110.1 -39.36,204.76 -118.07,283.99 -78.72,79.24 -173.13,118.85 -283.23,118.85l-132.74 0 0 435.26 -529.41 0 0 -1239.4 662.15 0c110.1,0 204.51,39.36 283.23,118.07 78.72,78.72 118.07,173.12 118.07,283.23zm-390.49 180.58l0 -348.82 -143.55 0 0 348.82 143.55 0zm-2534.24 2625.78c0,92.61 -32.93,171.84 -98.78,237.69 -65.86,65.86 -144.57,98.79 -236.16,98.79l-433.71 0 -121.94 -233.06 365.8 0 -314.86 -492.37c-33.96,-53.5 -50.94,-112.67 -50.94,-177.5 0,-92.61 33.19,-171.84 99.56,-237.69 66.37,-65.85 145.34,-98.78 236.92,-98.78l475.39 0 77.18 233.06 -370.43 0 319.49 487.73c34.99,53.51 52.48,114.22 52.48,182.13zm1075.73 103.42l-55.57 233.06 -844.27 0 0 -1239.4 844.27 0 55.57 233.06 -370.43 0 0 314.86 248.5 0 55.56 233.07 -304.06 0 0 225.35 370.43 0zm1111.22 0l-55.56 233.06 -844.28 0 0 -1239.4 529.41 0 0 1006.34 370.43 0zm1078.81 0l-55.56 233.06 -844.28 0 0 -1239.4 529.41 0 0 1006.34 370.43 0zm697.58 233.06l-529.41 0 0 -1240.95 529.41 0 0 1240.95zm1358.18 0l-296.35 0 -512.43 -449.15 0 449.15 -304.06 0 0 -1239.4 271.66 0 535.58 480.02 0 -480.02 305.61 0 0 1239.4zm1372.07 0l-202.19 -81.81c-108.05,72.04 -226.38,108.05 -355,108.05 -174.93,0 -324.65,-62 -449.15,-185.99 -124.51,-123.99 -186.76,-272.94 -186.76,-446.84 0,-173.89 62.25,-322.84 186.76,-446.83 124.5,-124 274.22,-185.99 449.15,-185.99l419.82 0 49.39 233.06 -535.59 0 0 773.28 152.8 0 0 -392.05 470.76 0 0 625.11zm-6215.12 2304.74l-530.96 0 0 -504.72 -236.15 446.06 -137.37 0 -213 -393.59 0 452.24 -256.22 0 0 -1239.4 376.61 0 267.01 447.6 254.68 -447.6 475.39 0 0 1239.4zm1524.87 -606.59c0,173.89 -62.5,322.85 -187.53,446.84 -125.02,123.99 -275.51,185.99 -451.47,185.99 -175.95,0 -326.44,-62 -451.46,-185.99 -125.02,-123.99 -187.54,-272.94 -187.54,-446.84 0,-173.89 62.51,-322.84 187.54,-446.83 125.01,-124 275.5,-185.99 451.46,-185.99 175.95,0 326.44,61.99 451.47,185.99 125.02,123.99 187.53,272.93 187.53,446.83zm-543.29 373.53l0 -773.28 -191.39 0 0 773.28 191.39 0zm1844.37 -131.2c0,100.85 -37.82,186.76 -113.44,257.76 -75.63,71 -166.44,106.5 -272.43,106.5l-736.23 0 0 -1239.4 736.23 0c81.3,0 151,27.52 209.14,82.57 58.13,55.05 87.2,121.17 87.2,198.34 0,53.51 -15.18,102.89 -45.54,148.17 -30.35,45.27 -70.23,80.26 -119.61,104.96 75.11,24.69 136.34,68.17 183.67,130.42 47.33,62.25 71,132.48 71,210.68zm-472.3 -404.38l0 -237.69 -145.08 0 0 237.69 145.08 0zm0 535.59l0 -327.22 -145.08 0 0 327.22 145.08 0zm1169.88 233.06l-529.41 0 0 -1240.95 529.41 0 0 1240.95zm1145.18 -233.06l-55.56 233.06 -844.28 0 0 -1239.4 529.41 0 0 1006.34 370.43 0zm1075.72 0l-55.57 233.06 -844.27 0 0 -1239.4 844.27 0 55.57 233.06 -370.43 0 0 314.86 248.5 0 55.56 233.07 -304.06 0 0 225.35 370.43 0zm1101.96 -103.42c0,92.61 -32.93,171.84 -98.78,237.69 -65.86,65.86 -144.57,98.79 -236.16,98.79l-433.71 0 -121.94 -233.06 365.8 0 -314.86 -492.37c-33.96,-53.5 -50.94,-112.67 -50.94,-177.5 0,-92.61 33.19,-171.84 99.56,-237.69 66.37,-65.85 145.34,-98.78 236.92,-98.78l475.39 0 77.18 233.06 -370.43 0 319.49 487.73c34.99,53.51 52.48,114.22 52.48,182.13z"/>
 </g>
</svg>
